<svg xmlns="http://www.w3.org/2000/svg" xmlns:xlink="http://www.w3.org/1999/xlink" width="320" height="113" viewBox="0 0 113">
  <defs>
    <clipPath id="clip-path">
      <rect id="Retângulo_2032" data-name="Retângulo 2032" width="41.598" height="15.247" fill="#f7a602"/>
    </clipPath>
    <filter id="Caminho_1" x="0" y="7.045" width="68.956" height="91.244" filterUnits="userSpaceOnUse">
      <feOffset dy="3" input="SourceAlpha"/>
      <feGaussianBlur stdDeviation="3" result="blur"/>
      <feFlood flood-opacity="0.161"/>
      <feComposite operator="in" in2="blur"/>
      <feComposite in="SourceGraphic"/>
    </filter>
    <filter id="ULSE" x="59.454" y="0" width="320" height="113" filterUnits="userSpaceOnUse">
      <feOffset dy="2" input="SourceAlpha"/>
      <feGaussianBlur stdDeviation="2" result="blur-2"/>
      <feFlood flood-opacity="0.741"/>
      <feComposite operator="in" in2="blur-2"/>
      <feComposite in="SourceGraphic"/>
    </filter>
  </defs>
  <g id="Grupo_3815" data-name="Grupo 3815" transform="translate(-72.38 -421.896)">
    <g id="Grupo_3813" data-name="Grupo 3813" transform="translate(81.38 453.901)">
      <g id="Grupo_3812" data-name="Grupo 3812" transform="translate(0 0)" clip-path="url(#clip-path)">
        <path id="Caminho_3161" data-name="Caminho 3161" d="M37.567,6.247a63.988,63.988,0,0,1,1.234,6.4,18.844,18.844,0,0,1,2.8-1.426c-.517-2.376-1.517-10.2-2.419-10.783-.947-.616-3.361-.66-4.044.366L31.958,9.15,9.539,9.14c-3.566-7.575-13.505-.183-7.82,4.827,2.914,2.568,6.044.938,7.819-1.959H33.955c2.768-.525,1.627-4.53,3.612-5.76" transform="translate(0 0.001)" fill="#f7a602"/>
      </g>
    </g>
    <g id="Grupo_11" data-name="Grupo 11" transform="translate(81.38 425.896)">
      <g id="Grupo_6" data-name="Grupo 6" transform="translate(0 0)">
        <g transform="matrix(1, 0, 0, 1, -9, -4)" filter="url(#Caminho_1)">
          <path id="Caminho_1-2" data-name="Caminho 1" d="M10.77,73.235a5.551,5.551,0,0,1-5.55-5.55V55.594A15.754,15.754,0,0,1,20.957,39.856H30.69a14.379,14.379,0,1,0,0-28.757H10.77a5.55,5.55,0,0,1,0-11.1H30.7a25.478,25.478,0,0,1,0,50.956H20.966A4.65,4.65,0,0,0,16.319,55.6V67.694a5.551,5.551,0,0,1-5.55,5.55Z" transform="translate(3.78 13.04)" fill="#fff"/>
        </g>
        <g transform="matrix(1, 0, 0, 1, -9, -4)" filter="url(#ULSE)">
          <text id="ULSE-2" data-name="ULSE" transform="translate(65 85)" fill="#fff" font-size="101" font-family="SharpGrotesk-Thin, Sharp Grotesk" font-weight="200"><tspan x="-5" y="0">ULSE</tspan></text>
        </g>
      </g>
    </g>
  </g>
</svg>
